<svg width="71" height="41" viewBox="0 0 71 41" fill="none" xmlns="http://www.w3.org/2000/svg">
<g clip-path="url(#clip0_20_7)">
<g filter="url(#filter0_d_20_7)">
<path d="M6.935 14.105C6.735 14.105 6.58 14.045 6.47 13.925C6.36 13.805 6.305 13.645 6.305 13.445V3.98C6.305 3.77 6.36 3.61 6.47 3.5C6.59 3.38 6.75 3.32 6.95 3.32C7.13 3.32 7.27 3.355 7.37 3.425C7.48 3.495 7.58 3.615 7.67 3.785L11.69 11.33H11.225L15.245 3.785C15.335 3.615 15.43 3.495 15.53 3.425C15.63 3.355 15.77 3.32 15.95 3.32C16.15 3.32 16.305 3.38 16.415 3.5C16.525 3.61 16.58 3.77 16.58 3.98V13.445C16.58 13.645 16.525 13.805 16.415 13.925C16.315 14.045 16.16 14.105 15.95 14.105C15.74 14.105 15.58 14.045 15.47 13.925C15.37 13.805 15.32 13.645 15.32 13.445V5.36H15.65L12.05 12.095C11.97 12.225 11.885 12.325 11.795 12.395C11.715 12.455 11.6 12.485 11.45 12.485C11.31 12.485 11.19 12.45 11.09 12.38C11 12.31 10.92 12.215 10.85 12.095L7.205 5.345H7.565V13.445C7.565 13.645 7.51 13.805 7.4 13.925C7.3 14.045 7.145 14.105 6.935 14.105ZM20.096 14.135C19.596 14.135 19.141 14.035 18.731 13.835C18.331 13.635 18.016 13.365 17.786 13.025C17.566 12.685 17.456 12.305 17.456 11.885C17.456 11.345 17.591 10.92 17.861 10.61C18.131 10.3 18.586 10.08 19.226 9.95C19.866 9.81 20.726 9.74 21.806 9.74H22.511V10.61H21.836C21.066 10.61 20.456 10.645 20.006 10.715C19.566 10.785 19.256 10.91 19.076 11.09C18.896 11.26 18.806 11.5 18.806 11.81C18.806 12.2 18.941 12.52 19.211 12.77C19.491 13.02 19.871 13.145 20.351 13.145C20.731 13.145 21.066 13.055 21.356 12.875C21.646 12.685 21.876 12.435 22.046 12.125C22.216 11.805 22.301 11.44 22.301 11.03V9.305C22.301 8.715 22.181 8.29 21.941 8.03C21.701 7.76 21.296 7.625 20.726 7.625C20.396 7.625 20.056 7.67 19.706 7.76C19.356 7.85 18.991 7.99 18.611 8.18C18.461 8.25 18.331 8.275 18.221 8.255C18.111 8.225 18.021 8.165 17.951 8.075C17.891 7.975 17.856 7.87 17.846 7.76C17.846 7.64 17.871 7.525 17.921 7.415C17.981 7.305 18.081 7.225 18.221 7.175C18.661 6.955 19.096 6.8 19.526 6.71C19.966 6.61 20.376 6.56 20.756 6.56C21.406 6.56 21.941 6.665 22.361 6.875C22.781 7.075 23.096 7.39 23.306 7.82C23.516 8.24 23.621 8.78 23.621 9.44V13.4C23.621 13.63 23.566 13.805 23.456 13.925C23.346 14.045 23.186 14.105 22.976 14.105C22.776 14.105 22.616 14.045 22.496 13.925C22.386 13.805 22.331 13.63 22.331 13.4V12.335H22.466C22.386 12.705 22.236 13.025 22.016 13.295C21.796 13.565 21.521 13.775 21.191 13.925C20.871 14.065 20.506 14.135 20.096 14.135ZM25.274 14.105C25.044 14.105 24.869 14.045 24.749 13.925C24.629 13.805 24.569 13.63 24.569 13.4V7.28C24.569 7.05 24.629 6.88 24.749 6.77C24.869 6.65 25.034 6.59 25.244 6.59C25.454 6.59 25.614 6.65 25.724 6.77C25.844 6.88 25.904 7.05 25.904 7.28V8.435H25.754C25.914 7.835 26.214 7.38 26.654 7.07C27.094 6.76 27.649 6.585 28.319 6.545C28.479 6.535 28.609 6.575 28.709 6.665C28.809 6.745 28.864 6.885 28.874 7.085C28.884 7.275 28.839 7.43 28.739 7.55C28.639 7.66 28.484 7.725 28.274 7.745L28.004 7.76C27.344 7.83 26.834 8.045 26.474 8.405C26.124 8.765 25.949 9.26 25.949 9.89V13.4C25.949 13.63 25.889 13.805 25.769 13.925C25.659 14.045 25.494 14.105 25.274 14.105ZM29.5225 14.075C29.3125 14.075 29.1475 14.01 29.0275 13.88C28.9075 13.75 28.8475 13.57 28.8475 13.34V7.355C28.8475 7.115 28.9075 6.935 29.0275 6.815C29.1475 6.685 29.3125 6.62 29.5225 6.62C29.7425 6.62 29.9125 6.685 30.0325 6.815C30.1525 6.935 30.2125 7.115 30.2125 7.355V13.34C30.2125 13.57 30.1525 13.75 30.0325 13.88C29.9225 14.01 29.7525 14.075 29.5225 14.075ZM29.5225 5C29.2525 5 29.0375 4.93 28.8775 4.79C28.7275 4.64 28.6525 4.445 28.6525 4.205C28.6525 3.945 28.7275 3.75 28.8775 3.62C29.0375 3.48 29.2525 3.41 29.5225 3.41C29.8125 3.41 30.0275 3.48 30.1675 3.62C30.3175 3.75 30.3925 3.945 30.3925 4.205C30.3925 4.445 30.3175 4.64 30.1675 4.79C30.0275 4.93 29.8125 5 29.5225 5ZM34.3121 14.135C33.5921 14.135 32.9671 13.98 32.4371 13.67C31.9071 13.36 31.4971 12.92 31.2071 12.35C30.9171 11.78 30.7721 11.11 30.7721 10.34C30.7721 9.76 30.8521 9.24 31.0121 8.78C31.1821 8.31 31.4221 7.91 31.7321 7.58C32.0421 7.25 32.4121 7 32.8421 6.83C33.2821 6.65 33.7721 6.56 34.3121 6.56C35.0321 6.56 35.6571 6.715 36.1871 7.025C36.7171 7.335 37.1271 7.775 37.4171 8.345C37.7071 8.905 37.8521 9.57 37.8521 10.34C37.8521 10.92 37.7671 11.445 37.5971 11.915C37.4371 12.385 37.2021 12.785 36.8921 13.115C36.5821 13.445 36.2071 13.7 35.7671 13.88C35.3371 14.05 34.8521 14.135 34.3121 14.135ZM34.3121 13.055C34.7521 13.055 35.1321 12.95 35.4521 12.74C35.7821 12.53 36.0321 12.225 36.2021 11.825C36.3821 11.425 36.4721 10.93 36.4721 10.34C36.4721 9.46 36.2771 8.79 35.8871 8.33C35.4971 7.87 34.9721 7.64 34.3121 7.64C33.8821 7.64 33.5021 7.745 33.1721 7.955C32.8521 8.155 32.6021 8.455 32.4221 8.855C32.2421 9.255 32.1521 9.75 32.1521 10.34C32.1521 11.22 32.3471 11.895 32.7371 12.365C33.1371 12.825 33.6621 13.055 34.3121 13.055ZM38.4307 14.105C38.2507 14.105 38.1057 14.065 37.9957 13.985C37.8957 13.905 37.8357 13.795 37.8157 13.655C37.7957 13.515 37.8257 13.36 37.9057 13.19L42.0007 3.92C42.0907 3.71 42.2057 3.56 42.3457 3.47C42.4857 3.37 42.6407 3.32 42.8107 3.32C42.9807 3.32 43.1307 3.37 43.2607 3.47C43.4007 3.56 43.5207 3.71 43.6207 3.92L47.7157 13.19C47.7957 13.36 47.8257 13.52 47.8057 13.67C47.7957 13.81 47.7407 13.92 47.6407 14C47.5407 14.07 47.4007 14.105 47.2207 14.105C47.0207 14.105 46.8607 14.055 46.7407 13.955C46.6207 13.845 46.5157 13.69 46.4257 13.49L45.3607 11L46.0057 11.36H39.5857L40.2307 11L39.1657 13.49C39.0757 13.71 38.9757 13.87 38.8657 13.97C38.7557 14.06 38.6107 14.105 38.4307 14.105ZM42.7807 5L40.4407 10.535L40.0807 10.22H45.5107L45.1657 10.535L42.8107 5H42.7807ZM50.4966 14.135C49.7466 14.135 49.1766 13.915 48.7866 13.475C48.3966 13.025 48.2016 12.38 48.2016 11.54V4.01C48.2016 3.78 48.2616 3.61 48.3816 3.5C48.5016 3.38 48.6666 3.32 48.8766 3.32C49.0966 3.32 49.2666 3.38 49.3866 3.5C49.5066 3.61 49.5666 3.78 49.5666 4.01V11.435C49.5666 11.955 49.6716 12.345 49.8816 12.605C50.1016 12.855 50.4116 12.98 50.8116 12.98C50.9016 12.98 50.9816 12.98 51.0516 12.98C51.1216 12.97 51.1916 12.96 51.2616 12.95C51.3716 12.94 51.4516 12.97 51.5016 13.04C51.5516 13.11 51.5766 13.25 51.5766 13.46C51.5766 13.65 51.5316 13.8 51.4416 13.91C51.3616 14.01 51.2266 14.075 51.0366 14.105C50.9466 14.115 50.8566 14.12 50.7666 14.12C50.6766 14.13 50.5866 14.135 50.4966 14.135ZM54.1126 14.105C53.9226 14.105 53.7576 14.055 53.6176 13.955C53.4776 13.855 53.3576 13.695 53.2576 13.475L50.7076 7.535C50.6376 7.365 50.6126 7.21 50.6326 7.07C50.6526 6.93 50.7176 6.815 50.8276 6.725C50.9476 6.635 51.1076 6.59 51.3076 6.59C51.4776 6.59 51.6126 6.63 51.7126 6.71C51.8126 6.79 51.9076 6.93 51.9976 7.13L54.3526 12.935H53.9326L56.3476 7.13C56.4276 6.93 56.5176 6.79 56.6176 6.71C56.7276 6.63 56.8776 6.59 57.0676 6.59C57.2376 6.59 57.3676 6.635 57.4576 6.725C57.5576 6.815 57.6176 6.93 57.6376 7.07C57.6576 7.21 57.6276 7.36 57.5476 7.52L54.9826 13.475C54.8926 13.695 54.7726 13.855 54.6226 13.955C54.4826 14.055 54.3126 14.105 54.1126 14.105ZM61.1591 14.135C60.3691 14.135 59.6891 13.985 59.1191 13.685C58.5591 13.375 58.1241 12.94 57.8141 12.38C57.5041 11.81 57.3491 11.14 57.3491 10.37C57.3491 9.61 57.4991 8.945 57.7991 8.375C58.1091 7.805 58.5291 7.36 59.0591 7.04C59.5991 6.72 60.2141 6.56 60.9041 6.56C61.3941 6.56 61.8341 6.645 62.2241 6.815C62.6241 6.975 62.9641 7.21 63.2441 7.52C63.5241 7.83 63.7341 8.21 63.8741 8.66C64.0241 9.1 64.0991 9.6 64.0991 10.16C64.0991 10.32 64.0491 10.445 63.9491 10.535C63.8591 10.615 63.7241 10.655 63.5441 10.655H58.4141V9.785H63.1991L62.9441 9.995C62.9441 9.475 62.8641 9.035 62.7041 8.675C62.5541 8.305 62.3291 8.025 62.0291 7.835C61.7391 7.645 61.3741 7.55 60.9341 7.55C60.4541 7.55 60.0441 7.665 59.7041 7.895C59.3641 8.115 59.1041 8.43 58.9241 8.84C58.7441 9.24 58.6541 9.705 58.6541 10.235V10.325C58.6541 11.225 58.8691 11.905 59.2991 12.365C59.7291 12.825 60.3491 13.055 61.1591 13.055C61.4791 13.055 61.8041 13.015 62.1341 12.935C62.4741 12.855 62.7991 12.71 63.1091 12.5C63.2591 12.41 63.3941 12.37 63.5141 12.38C63.6441 12.38 63.7491 12.42 63.8291 12.5C63.9091 12.57 63.9591 12.66 63.9791 12.77C63.9991 12.87 63.9841 12.98 63.9341 13.1C63.8841 13.22 63.7891 13.325 63.6491 13.415C63.3191 13.645 62.9241 13.825 62.4641 13.955C62.0141 14.075 61.5791 14.135 61.1591 14.135ZM67.1168 14.135C66.6668 14.135 66.2118 14.085 65.7518 13.985C65.3018 13.875 64.8768 13.69 64.4768 13.43C64.3668 13.36 64.2868 13.275 64.2368 13.175C64.1968 13.065 64.1818 12.96 64.1918 12.86C64.2118 12.75 64.2568 12.655 64.3268 12.575C64.3968 12.495 64.4818 12.45 64.5818 12.44C64.6918 12.42 64.8068 12.445 64.9268 12.515C65.3168 12.735 65.6918 12.89 66.0518 12.98C66.4218 13.07 66.7868 13.115 67.1468 13.115C67.6968 13.115 68.1118 13.015 68.3918 12.815C68.6718 12.615 68.8118 12.35 68.8118 12.02C68.8118 11.74 68.7168 11.525 68.5268 11.375C68.3468 11.215 68.0618 11.095 67.6718 11.015L66.2768 10.73C65.6568 10.59 65.1868 10.36 64.8668 10.04C64.5568 9.71 64.4018 9.29 64.4018 8.78C64.4018 8.33 64.5218 7.94 64.7618 7.61C65.0118 7.27 65.3568 7.01 65.7968 6.83C66.2368 6.65 66.7418 6.56 67.3118 6.56C67.7518 6.56 68.1668 6.62 68.5568 6.74C68.9568 6.85 69.3168 7.02 69.6368 7.25C69.7568 7.32 69.8318 7.41 69.8618 7.52C69.9018 7.62 69.9068 7.725 69.8768 7.835C69.8568 7.935 69.8118 8.02 69.7418 8.09C69.6718 8.16 69.5818 8.205 69.4718 8.225C69.3618 8.235 69.2418 8.205 69.1118 8.135C68.8218 7.935 68.5218 7.795 68.2118 7.715C67.9118 7.625 67.6118 7.58 67.3118 7.58C66.7718 7.58 66.3618 7.685 66.0818 7.895C65.8118 8.105 65.6768 8.38 65.6768 8.72C65.6768 8.98 65.7568 9.195 65.9168 9.365C66.0868 9.535 66.3518 9.66 66.7118 9.74L68.1068 10.025C68.7568 10.165 69.2468 10.39 69.5768 10.7C69.9068 11 70.0718 11.41 70.0718 11.93C70.0718 12.61 69.8018 13.15 69.2618 13.55C68.7318 13.94 68.0168 14.135 67.1168 14.135Z" fill="white"/>
</g>
<path d="M22.276 37.112C21.7907 37.112 21.3893 36.9533 21.072 36.636C20.7547 36.3187 20.596 35.9173 20.596 35.432C20.596 34.9467 20.7547 34.5547 21.072 34.256C21.3893 33.9573 21.7907 33.808 22.276 33.808C22.7987 33.808 23.2 33.9573 23.48 34.256C23.7787 34.5547 23.928 34.9467 23.928 35.432C23.928 35.9173 23.7787 36.3187 23.48 36.636C23.2 36.9533 22.7987 37.112 22.276 37.112ZM32.1856 37.252C30.9909 37.252 29.9363 36.972 29.0216 36.412C28.1256 35.8333 27.4256 35.012 26.9216 33.948C26.4176 32.8653 26.1656 31.6053 26.1656 30.168C26.1656 28.712 26.4083 27.4613 26.8936 26.416C27.3976 25.352 28.0976 24.54 28.9936 23.98C29.9083 23.4013 30.9723 23.112 32.1856 23.112C33.3989 23.112 34.4443 23.42 35.3216 24.036C36.1989 24.6333 36.7869 25.436 37.0856 26.444H36.7776V18.352C36.7776 17.9227 36.8803 17.6053 37.0856 17.4C37.3096 17.176 37.6269 17.064 38.0376 17.064C38.4483 17.064 38.7656 17.176 38.9896 17.4C39.2136 17.6053 39.3256 17.9227 39.3256 18.352V35.88C39.3256 36.3093 39.2136 36.636 38.9896 36.86C38.7656 37.084 38.4483 37.196 38.0376 37.196C37.6456 37.196 37.3376 37.084 37.1136 36.86C36.8896 36.636 36.7776 36.3093 36.7776 35.88V33.332L37.0856 33.836C36.8056 34.8813 36.2176 35.712 35.3216 36.328C34.4443 36.944 33.3989 37.252 32.1856 37.252ZM32.7736 35.236C33.5949 35.236 34.3043 35.04 34.9016 34.648C35.5176 34.256 35.9843 33.6867 36.3016 32.94C36.6376 32.1933 36.8056 31.2693 36.8056 30.168C36.8056 28.5253 36.4416 27.2747 35.7136 26.416C34.9856 25.5573 34.0056 25.128 32.7736 25.128C31.9709 25.128 31.2616 25.324 30.6456 25.716C30.0483 26.0893 29.5816 26.6493 29.2456 27.396C28.9096 28.1427 28.7416 29.0667 28.7416 30.168C28.7416 31.8107 29.1056 33.0707 29.8336 33.948C30.5803 34.8067 31.5603 35.236 32.7736 35.236ZM49.7112 37.252C48.2365 37.252 46.9672 36.972 45.9032 36.412C44.8579 35.8333 44.0459 35.0213 43.4672 33.976C42.8885 32.912 42.5992 31.6613 42.5992 30.224C42.5992 28.8053 42.8792 27.564 43.4392 26.5C44.0179 25.436 44.8019 24.6053 45.7912 24.008C46.7992 23.4107 47.9472 23.112 49.2352 23.112C50.1499 23.112 50.9712 23.2707 51.6992 23.588C52.4459 23.8867 53.0805 24.3253 53.6032 24.904C54.1259 25.4827 54.5179 26.192 54.7792 27.032C55.0592 27.8533 55.1992 28.7867 55.1992 29.832C55.1992 30.1307 55.1059 30.364 54.9192 30.532C54.7512 30.6813 54.4992 30.756 54.1632 30.756H44.5872V29.132H53.5192L53.0432 29.524C53.0432 28.5533 52.8939 27.732 52.5952 27.06C52.3152 26.3693 51.8952 25.8467 51.3352 25.492C50.7939 25.1373 50.1125 24.96 49.2912 24.96C48.3952 24.96 47.6299 25.1747 46.9952 25.604C46.3605 26.0147 45.8752 26.6027 45.5392 27.368C45.2032 28.1147 45.0352 28.9827 45.0352 29.972V30.14C45.0352 31.82 45.4365 33.0893 46.2392 33.948C47.0419 34.8067 48.1992 35.236 49.7112 35.236C50.3085 35.236 50.9152 35.1613 51.5312 35.012C52.1659 34.8627 52.7725 34.592 53.3512 34.2C53.6312 34.032 53.8832 33.9573 54.1072 33.976C54.3499 33.976 54.5459 34.0507 54.6952 34.2C54.8445 34.3307 54.9379 34.4987 54.9752 34.704C55.0125 34.8907 54.9845 35.096 54.8912 35.32C54.7979 35.544 54.6205 35.74 54.3592 35.908C53.7432 36.3373 53.0059 36.6733 52.1472 36.916C51.3072 37.14 50.4952 37.252 49.7112 37.252ZM63.3568 37.196C63.0021 37.196 62.6941 37.1027 62.4328 36.916C62.1715 36.7293 61.9475 36.4307 61.7608 36.02L57.0008 24.932C56.8701 24.6147 56.8235 24.3253 56.8608 24.064C56.8981 23.8027 57.0195 23.588 57.2248 23.42C57.4488 23.252 57.7475 23.168 58.1208 23.168C58.4381 23.168 58.6901 23.2427 58.8768 23.392C59.0635 23.5413 59.2408 23.8027 59.4088 24.176L63.8048 35.012H63.0208L67.5288 24.176C67.6781 23.8027 67.8461 23.5413 68.0328 23.392C68.2381 23.2427 68.5181 23.168 68.8728 23.168C69.1901 23.168 69.4328 23.252 69.6008 23.42C69.7875 23.588 69.8995 23.8027 69.9368 24.064C69.9741 24.3253 69.9181 24.6053 69.7688 24.904L64.9808 36.02C64.8128 36.4307 64.5888 36.7293 64.3088 36.916C64.0475 37.1027 63.7301 37.196 63.3568 37.196Z" fill="white"/>
</g>
<defs>
<filter id="filter0_d_20_7" x="4.30505" y="3.31995" width="71.7667" height="18.8151" filterUnits="userSpaceOnUse" color-interpolation-filters="sRGB">
<feFlood flood-opacity="0" result="BackgroundImageFix"/>
<feColorMatrix in="SourceAlpha" type="matrix" values="0 0 0 0 0 0 0 0 0 0 0 0 0 0 0 0 0 0 127 0" result="hardAlpha"/>
<feOffset dx="2" dy="4"/>
<feGaussianBlur stdDeviation="2"/>
<feComposite in2="hardAlpha" operator="out"/>
<feColorMatrix type="matrix" values="0 0 0 0 0 0 0 0 0 0 0 0 0 0 0 0 0 0 0.19 0"/>
<feBlend mode="normal" in2="BackgroundImageFix" result="effect1_dropShadow_20_7"/>
<feBlend mode="normal" in="SourceGraphic" in2="effect1_dropShadow_20_7" result="shape"/>
</filter>
<clipPath id="clip0_20_7">
<rect width="71" height="41" fill="white"/>
</clipPath>
</defs>
</svg>
